<?xml version="1.0" encoding="UTF-8" standalone="no"?>
<svg
   id="Layer_1"
   version="1.1"
   viewBox="0 0 150 150"
   xml:space="preserve"
   sodipodi:docname="toshy_app_icon_rainbow.svg"
   inkscape:version="1.2.2 (b0a8486541, 2022-12-01)"
   inkscape:export-filename="circle_command_symbol_heavier_green.png"
   inkscape:export-xdpi="24"
   inkscape:export-ydpi="24"
   width="150"
   height="150"
   xmlns:inkscape="http://www.inkscape.org/namespaces/inkscape"
   xmlns:sodipodi="http://sodipodi.sourceforge.net/DTD/sodipodi-0.dtd"
   xmlns="http://www.w3.org/2000/svg"
   xmlns:svg="http://www.w3.org/2000/svg"><defs
     id="defs13" /><sodipodi:namedview
     id="namedview11"
     pagecolor="#ffffff"
     bordercolor="#000000"
     borderopacity="0.25"
     inkscape:showpageshadow="2"
     inkscape:pageopacity="0.0"
     inkscape:pagecheckerboard="0"
     inkscape:deskcolor="#d1d1d1"
     showgrid="false"
     inkscape:zoom="1.4468929"
     inkscape:cx="-15.550564"
     inkscape:cy="68.422482"
     inkscape:window-width="1920"
     inkscape:window-height="1043"
     inkscape:window-x="0"
     inkscape:window-y="0"
     inkscape:window-maximized="1"
     inkscape:current-layer="Layer_1"><inkscape:grid
       type="xygrid"
       id="grid798"
       originx="0"
       originy="0" /></sodipodi:namedview><style
     type="text/css"
     id="style2">
	.st0{fill:#FFFFFF;}
</style><g
     id="g6"><circle
       id="circle4"
       style="opacity:1;fill:#00b400;fill-opacity:1"
       cy="64"
       cx="64"
       r="64" /><rect
       style="fill:#000000"
       id="rect950"
       width="0.60250729"
       height="0.086075649"
       x="119.76472"
       y="11.004383" /><rect
       style="fill:#61bb46;fill-opacity:1;stroke-width:1.14949"
       id="rect2416"
       width="150"
       height="74.434341"
       x="0"
       y="0"
       rx="25"
       ry="25" /><rect
       style="fill:#009ddc;fill-opacity:1;stroke-width:1.15384"
       id="rect2416-3"
       width="150"
       height="75"
       x="0"
       y="75"
       rx="25"
       ry="25" /><rect
       style="fill:#fdb827;fill-opacity:1;stroke-width:1.13227"
       id="rect2416-3-6"
       width="150"
       height="25"
       x="0"
       y="25"
       rx="0"
       ry="0" /><rect
       style="fill:#f5821f;fill-opacity:1;stroke-width:1.13227"
       id="rect2416-3-6-7"
       width="150"
       height="25"
       x="0"
       y="50"
       rx="0"
       ry="0" /><rect
       style="fill:#e03a3e;fill-opacity:1;stroke-width:1.13227"
       id="rect2416-3-6-7-5"
       width="150"
       height="25"
       x="0"
       y="75"
       rx="0"
       ry="0" /><rect
       style="fill:#963d97;fill-opacity:1;stroke-width:1.13227"
       id="rect2416-3-6-7-5-3"
       width="150"
       height="25"
       x="0"
       y="100"
       rx="0"
       ry="0" /></g><path
     class="st0"
     d="M 105.94618,89.244745 94.019632,87.660906 96.664856,67.741971 108.5914,69.32581 C 119.30464,70.748521 132.38139,60.703813 133.80285,50 135.22431,39.296185 125.22243,26.186649 114.5092,24.763937 103.79595,23.341224 90.719199,33.385931 89.297739,44.089746 l -1.541343,11.606546 -20.032463,-2.6603 1.541343,-11.606545 C 70.686737,30.725632 60.684856,17.616095 49.971617,16.193383 39.258382,14.770671 26.181628,24.815378 24.760167,35.519193 23.338707,46.223006 33.34059,59.332544 44.053825,60.755256 L 55.980369,62.339094 53.335145,82.258029 41.408602,80.674191 C 30.695367,79.25148 17.618612,89.29619 16.197154,99.999988 c -1.421461,10.703822 8.580421,23.813362 19.293656,25.236072 10.71324,1.42272 23.789992,-8.622 25.211453,-19.32582 l 1.541341,-11.606532 20.032463,2.6603 -1.541341,11.606532 c -1.421461,10.70382 8.580418,23.81336 19.293664,25.23608 10.71323,1.42271 23.78998,-8.62201 25.21144,-19.32583 1.42146,-10.70379 -8.58041,-23.813333 -19.29365,-25.236045 z M 99.933528,45.502173 c 1.044692,-7.86666 5.284522,-11.109453 13.158112,-10.063845 7.87359,1.045608 11.1201,5.282584 10.07541,13.149244 -1.04469,7.866658 -5.28451,11.109455 -13.15809,10.063847 l -11.616775,-1.5427 z m -54.46215,4.578692 C 37.597795,49.035258 34.351272,44.798279 35.39596,36.93162 c 1.044688,-7.86666 5.28452,-11.109453 13.158104,-10.063846 7.873584,1.045608 11.120109,5.282585 10.075421,13.149245 l -1.541343,11.606546 z m 4.595094,54.416945 c -1.044692,7.86669 -5.284523,11.10947 -13.158108,10.06386 -7.873583,-1.04561 -11.120109,-5.28257 -10.075417,-13.14925 1.044685,-7.866641 5.284518,-11.109446 13.158102,-10.063839 l 11.616764,1.5427 z m 13.594685,-20.868492 2.645223,-19.918936 20.032463,2.6603 -2.645223,19.918936 z m 37.784783,39.502902 c -7.87359,-1.04561 -11.120117,-5.28257 -10.075425,-13.14925 l 1.541341,-11.606535 11.616774,1.5427 c 7.87358,1.045605 11.12009,5.282595 10.07541,13.149235 -1.04469,7.86668 -5.28451,11.10946 -13.1581,10.06385 z"
     id="path8"
     style="stroke-width:115.706;stroke-dasharray:none"
     sodipodi:nodetypes="sccssssccssssccssssccsssssssscssssscssssscscccccsscsss" /><rect
     style="fill:none;fill-opacity:1;stroke:#000000;stroke-opacity:1"
     id="rect11148"
     width="150"
     height="150"
     x="0"
     y="0"
     rx="25"
     ry="25" /></svg>
